<?xml version="1.0" encoding="UTF-8" standalone="no"?>
<!-- Created with Inkscape (http://www.inkscape.org/) -->
<svg
   xmlns:dc="http://purl.org/dc/elements/1.1/"
   xmlns:cc="http://creativecommons.org/ns#"
   xmlns:rdf="http://www.w3.org/1999/02/22-rdf-syntax-ns#"
   xmlns:svg="http://www.w3.org/2000/svg"
   xmlns="http://www.w3.org/2000/svg"
   xmlns:sodipodi="http://sodipodi.sourceforge.net/DTD/sodipodi-0.dtd"
   xmlns:inkscape="http://www.inkscape.org/namespaces/inkscape"
   width="1045.7144"
   height="395.71429"
   id="svg2"
   inkscape:label="Pozadí"
   sodipodi:version="0.32"
   inkscape:version="0.46"
   version="1.0"
   sodipodi:docname="Logo Zetor.svg"
   inkscape:output_extension="org.inkscape.output.svg.inkscape">
  <defs
     id="defs3" />
  <sodipodi:namedview
     id="base"
     pagecolor="#ffffff"
     bordercolor="#666666"
     borderopacity="1.0"
     inkscape:pageopacity="0.0"
     inkscape:pageshadow="2"
     inkscape:zoom="0.7"
     inkscape:cx="495.01857"
     inkscape:cy="470.12077"
     inkscape:document-units="px"
     inkscape:current-layer="svg2"
     showgrid="false"
     inkscape:window-width="1272"
     inkscape:window-height="951"
     inkscape:window-x="0"
     inkscape:window-y="0" />
  <metadata
     id="metadata6">
    <rdf:RDF>
      <cc:Work
         rdf:about="">
        <dc:format>image/svg+xml</dc:format>
        <dc:type
           rdf:resource="http://purl.org/dc/dcmitype/StillImage" />
      </cc:Work>
    </rdf:RDF>
  </metadata>
  <g
     inkscape:label="Vrstva 1"
     inkscape:groupmode="layer"
     id="layer1"
     transform="translate(-5.7142859,-165.52306)" />
  <path
     id="path3242"
     style="fill:#db261d;fill-opacity:1;fill-rule:evenodd;stroke:none;stroke-width:1px;stroke-linecap:butt;stroke-linejoin:miter;stroke-opacity:1"
     d="M 1017.509,189.08672 C 1017.509,189.08672 988.73693,207.11374 974.73067,213.9834 C 966.44223,218.04864 958.82401,220.59136 949.83926,222.71237 C 939.794,225.08374 922.93709,227.17966 912.63693,226.51839 C 901.24878,225.78727 876.27111,221.78031 866.68985,221.59019 C 857.95562,221.41687 836.92358,220.61377 823.97809,227.6511 C 813.95568,233.09941 805.60496,246.67359 799.37729,256.23124 C 792.71845,266.4506 785.69542,281.9376 779.76597,292.59673 C 773.01981,304.72401 758.02231,330.92125 758.02231,330.92125 L 695.33158,330.92125 L 764.02195,211.07023 C 764.02195,211.07023 752.1305,213.35629 743.8189,213.32513 C 735.76277,213.29427 731.75147,212.72542 726.64631,212.01912 C 721.61427,211.32292 712.98386,209.46836 712.98386,209.46836 C 712.98386,209.46836 713.80314,221.03405 711.43274,235.73232 C 709.90697,245.19323 706.21277,256.85949 702.40264,265.32261 C 697.87932,275.36988 690.23549,288.14929 683.20975,296.63734 C 677.46458,303.57829 668.52498,311.19119 660.98639,316.1261 C 652.92844,321.40101 641.53376,326.05805 632.04911,328.18666 C 621.69994,330.50928 607.63187,330.30864 597.05092,328.5438 C 575.87607,324.51041 572.71848,319.5318 554.56323,303.35126 C 554.56323,303.35126 535.90471,313.9102 527.58498,318.08514 C 519.26525,322.26007 508.05127,325.92964 499.00484,328.12538 C 486.62202,331.13091 469.89283,332.13453 457.29272,330.50283 C 449.87002,329.5416 441.4099,326.6568 435.13064,322.84003 C 429.81723,319.61034 419.55993,308.75917 419.55993,308.75917 C 419.55993,308.75917 402.86259,316.73818 394.42867,320.10544 C 386.15116,323.41024 373.78536,327.8186 364.35868,329.19681 C 355.36295,330.512 342.89402,331.18562 333.69697,330.62538 C 326.9332,330.21336 317.81897,328.07017 311.47361,325.51334 C 305.84625,323.24582 297.73159,318.66013 294.1277,315.11595 C 290.52381,311.57177 286.93409,308.22871 286.93409,308.22871 C 286.93409,308.22871 271.45717,313.9972 265.24119,316.77911 C 257.18625,320.38404 247.04033,323.49377 238.38549,325.21747 C 230.60679,326.76668 218.96848,329.57833 211.05009,330.03365 C 200.15843,330.65994 187.12597,330.23117 176.47031,327.89079 C 167.99443,326.02918 157.66048,319.00719 151.99206,315.05468 C 146.32364,311.10216 139.51308,304.71856 139.51308,304.71856 C 139.51308,304.71856 122.83114,314.99664 116.39688,318.67687 C 109.96262,322.3571 102.7624,325.53507 96.785564,328.18666 C 91.434783,330.5605 80.103907,331.50861 74.970109,330.98252 C 66.852863,330.1507 60.310468,326.16397 55.670428,321.41146 C 50.545712,316.16253 45.745953,312.08149 43.252731,304.47871 C 39.851887,294.10824 37.878413,279.37749 40.099722,269.00608 C 41.746169,261.31873 47.548316,252.03886 53.114409,246.48685 C 59.639909,239.97787 70.015885,235.40898 79.138528,232.88043 C 88.261171,230.35187 102.42035,229.09985 111.46341,229.96727 C 120.50647,230.83468 140.16609,235.60977 140.16609,235.60977 L 175.87857,196.9281 L 137.13564,196.9281 L 161.49134,162.28705 L 208.43805,162.28705 L 240.76293,123.90125 C 240.76293,123.90125 214.30386,124.8266 188.46959,121.52381 C 175.15811,119.822 163.87007,117.01049 145.80859,116.83018 C 135.68534,116.72708 124.04414,116.79334 112.1882,119.73809 C 107.21254,120.97394 94.537884,124.73153 89.423882,127.94186 C 81.937343,132.64156 71.993923,142.35633 66.006545,149.38966 C 61.40382,154.79644 50.854257,169.35812 50.854257,169.35812 L 27.620748,150.16522 C 27.620748,150.16522 53.266356,114.84752 66.067821,101.6779 C 77.829876,89.577594 94.12592,74.566724 108.5555,66.087964 C 120.47187,59.085964 135.73941,52.330184 150.02252,49.445834 C 158.68292,47.696944 173.34202,46.893264 182.17408,47.129664 C 193.82831,47.441604 207.06543,50.803084 220.55988,53.190574 C 234.05433,55.578064 256.06601,60.849384 272.07766,62.934964 C 283.50089,64.422884 299.00407,65.479704 310.46346,64.302254 C 315.72821,63.761304 322.90059,62.625034 327.63605,60.261644 C 329.75381,59.204704 333.69697,55.210884 333.69697,55.210884 L 354.91017,80.464694 C 354.91017,80.464694 343.83712,81.004374 338.75824,86.280514 C 318.48351,107.34265 270.94495,162.76674 270.94495,162.76674 L 300.00479,162.94006 L 274.51638,198.59126 L 237.07946,198.23412 L 182.17408,259.26169 C 182.17408,259.26169 191.05752,271.09595 196.31622,274.41398 C 201.42283,277.63604 208.15579,280.74604 214.08055,281.90347 C 222.83565,283.61382 230.84007,283.57882 240.17409,283.32824 C 250.9229,283.03967 259.07965,279.59444 274.22052,274.05684 C 274.22052,274.05684 272.95213,251.07805 275.23067,241.6094 C 278.05339,229.87938 283.40632,217.67279 290.26041,207.74391 C 296.95702,198.04317 307.69279,185.13307 316.82023,177.67393 C 325.99881,170.173 339.6678,162.1234 350.86956,158.24644 C 362.38183,154.26201 380.14487,153.1451 391.98995,155.99154 C 401.7981,158.3485 413.87727,164.05416 419.55993,172.38857 C 424.78293,180.04883 424.85716,193.42684 424.54942,202.69315 C 424.33861,209.04064 420.26778,220.89706 417.24376,227.41651 C 414.21973,233.93596 408.01964,241.24328 402.56066,246.48685 C 396.40551,252.39912 390.04555,258.00821 382.35761,263.3023 C 374.66967,268.59639 352.82859,279.40347 352.82859,279.40347 C 352.82859,279.40347 359.87634,285.33542 376.00082,284.03581 C 391.77049,282.7648 398.74251,279.52026 405.94825,275.48541 C 413.15399,271.45056 416.14304,267.88583 422.40656,260.98614 C 428.69562,254.05831 481.17924,176.42918 481.17924,176.42918 L 448.85436,176.42918 L 472.08786,141.07384 L 504.41275,141.07384 L 524.6158,107.73881 L 583.20464,107.73881 L 565.0219,141.07384 L 596.33663,141.07384 L 576.13358,175.41903 L 545.829,175.41903 C 545.829,175.41903 516.32168,224.52188 496.42926,258.521 C 492.51673,265.2081 489.05826,271.03473 490.9849,275.60797 C 493.54657,281.68859 500.86993,281.81806 508.03769,282.08338 C 517.1987,282.42247 524.50751,282.58632 531.57105,279.55687 C 539.98085,275.95003 543.15969,273.17024 548.85946,268.35307 C 548.85946,268.35307 550.00403,245.36216 552.90007,236.02818 C 555.83208,226.57825 563.22078,213.28839 569.30236,205.48376 C 575.7683,197.18588 586.91243,188.8572 595.74489,183.14311 C 604.39965,177.54398 617.11269,171.34822 627.05962,168.64383 C 635.29453,166.40491 653.91532,166.32766 653.91532,166.32766 L 655.34389,198.65254 C 655.34389,198.65254 634.54162,201.03278 627.88595,204.65218 C 620.14704,208.86065 611.20188,218.47209 606.9126,226.16651 C 603.17679,232.86808 601.4737,242.74556 603.40769,250.17032 C 605.25685,257.2694 608.79153,263.33207 619.09569,266.14893 C 627.18086,268.35919 637.29489,266.54738 644.5841,262.40944 C 651.10909,258.70534 659.00404,251.46579 663.0067,245.11956 C 667.90827,237.34812 670.85627,228.75438 672.57251,221.35034 C 674.07955,214.84883 674.11837,203.7033 674.11837,199.66269 C 674.11837,195.62208 671.56761,166.02653 671.56761,166.02653 L 706.67785,160.80245 C 706.67785,160.80245 715.24512,171.27616 719.63652,174.52617 C 724.72285,178.29049 736.55403,179.58534 742.87528,179.87281 C 753.0299,180.33461 761.66978,178.92392 769.73098,176.01077 C 778.43185,172.86646 790.28066,161.2769 790.28066,161.2769 L 853.92553,161.2769 L 834.73263,191.58147 C 834.73263,191.58147 849.07882,186.27759 857.96614,182.60739 C 867.0058,178.87428 877.36854,175.65721 887.07673,173.27617 C 896.45762,170.97541 907.22053,168.71569 923.62605,168.34796 C 932.49535,168.14915 944.20952,170.70831 952.92048,172.38857 C 960.18765,173.79034 968.74212,175.02511 978.59271,175.06189 C 987.18424,175.09396 1003.4281,171.37842 1003.4281,171.37842 L 1017.509,189.08672 z M 331.67666,251.68555 C 331.67666,251.68555 331.20019,232.66423 333.4011,224.62064 C 335.49476,216.96899 341.20224,206.35077 346.74229,200.67284 C 350.77172,196.54313 355.97612,192.61302 361.6241,191.43354 C 366.99659,190.31159 374.09967,190.1586 380.87826,194.16813 C 382.86898,195.34564 383.62666,197.42316 384.20459,199.66269 C 385.01815,202.81529 383.63948,209.1983 382.27095,213.00389 C 380.67539,217.44079 375.89899,223.4772 372.31736,227.14602 C 368.67525,230.8768 361.45762,235.45054 357.10379,238.31897 C 352.22128,241.53571 348.48633,243.94781 343.29341,246.63479 C 339.91829,248.38118 331.67666,251.68555 331.67666,251.68555 z" />
</svg>
